<mxfile host="Electron" agent="Mozilla/5.0 (Windows NT 10.0; Win64; x64) AppleWebKit/537.36 (KHTML, like Gecko) draw.io/28.1.2 Chrome/138.0.7204.243 Electron/37.4.0 Safari/537.36" version="28.1.2">
  <diagram name="第 1 页" id="A3u4Mf2xzGmtK7nuqtbF">
    <mxGraphModel dx="1090" dy="593" grid="1" gridSize="7" guides="1" tooltips="1" connect="1" arrows="1" fold="1" page="1" pageScale="1" pageWidth="827" pageHeight="1169" math="0" shadow="0">
      <root>
        <mxCell id="0" />
        <mxCell id="1" parent="0" />
        <mxCell id="BfK6dcjfq0ZnuuueL0xo-9" style="edgeStyle=orthogonalEdgeStyle;rounded=0;orthogonalLoop=1;jettySize=auto;html=1;strokeColor=#3333FF;" edge="1" parent="1" source="BfK6dcjfq0ZnuuueL0xo-1" target="BfK6dcjfq0ZnuuueL0xo-2">
          <mxGeometry relative="1" as="geometry" />
        </mxCell>
        <mxCell id="BfK6dcjfq0ZnuuueL0xo-12" style="edgeStyle=orthogonalEdgeStyle;rounded=0;orthogonalLoop=1;jettySize=auto;html=1;strokeColor=#FF3333;" edge="1" parent="1" source="BfK6dcjfq0ZnuuueL0xo-1" target="BfK6dcjfq0ZnuuueL0xo-6">
          <mxGeometry relative="1" as="geometry" />
        </mxCell>
        <mxCell id="BfK6dcjfq0ZnuuueL0xo-14" value="是" style="edgeLabel;html=1;align=center;verticalAlign=middle;resizable=0;points=[];" vertex="1" connectable="0" parent="BfK6dcjfq0ZnuuueL0xo-12">
          <mxGeometry x="0.1304" y="1" relative="1" as="geometry">
            <mxPoint x="-2" y="23" as="offset" />
          </mxGeometry>
        </mxCell>
        <mxCell id="BfK6dcjfq0ZnuuueL0xo-1" value="&lt;b&gt;&lt;font style=&quot;color: rgb(51, 51, 255);&quot;&gt;消费开始&lt;/font&gt;&lt;/b&gt;" style="rounded=1;whiteSpace=wrap;html=1;absoluteArcSize=1;arcSize=14;strokeWidth=2;" vertex="1" parent="1">
          <mxGeometry x="392" y="126" width="100" height="42" as="geometry" />
        </mxCell>
        <mxCell id="BfK6dcjfq0ZnuuueL0xo-10" style="edgeStyle=orthogonalEdgeStyle;rounded=0;orthogonalLoop=1;jettySize=auto;html=1;exitX=0.5;exitY=1;exitDx=0;exitDy=0;exitPerimeter=0;strokeColor=#FF3333;" edge="1" parent="1" source="BfK6dcjfq0ZnuuueL0xo-2" target="BfK6dcjfq0ZnuuueL0xo-7">
          <mxGeometry relative="1" as="geometry" />
        </mxCell>
        <mxCell id="BfK6dcjfq0ZnuuueL0xo-15" value="否" style="edgeLabel;html=1;align=center;verticalAlign=middle;resizable=0;points=[];" vertex="1" connectable="0" parent="BfK6dcjfq0ZnuuueL0xo-10">
          <mxGeometry x="0.1111" y="2" relative="1" as="geometry">
            <mxPoint x="-3" y="-6" as="offset" />
          </mxGeometry>
        </mxCell>
        <mxCell id="BfK6dcjfq0ZnuuueL0xo-2" value="&lt;b&gt;&lt;font style=&quot;color: rgb(255, 51, 51);&quot;&gt;检查是否存在记录&lt;/font&gt;&lt;/b&gt;" style="strokeWidth=2;html=1;shape=mxgraph.flowchart.decision;whiteSpace=wrap;" vertex="1" parent="1">
          <mxGeometry x="375.5" y="210" width="133" height="70" as="geometry" />
        </mxCell>
        <mxCell id="BfK6dcjfq0ZnuuueL0xo-6" value="&lt;b&gt;&lt;font style=&quot;color: rgb(51, 51, 255);&quot;&gt;结束&lt;/font&gt;&lt;/b&gt;" style="rounded=1;whiteSpace=wrap;html=1;absoluteArcSize=1;arcSize=14;strokeWidth=2;" vertex="1" parent="1">
          <mxGeometry x="203" y="406" width="100" height="42" as="geometry" />
        </mxCell>
        <mxCell id="BfK6dcjfq0ZnuuueL0xo-11" style="edgeStyle=orthogonalEdgeStyle;rounded=0;orthogonalLoop=1;jettySize=auto;html=1;entryX=0.75;entryY=0;entryDx=0;entryDy=0;exitX=1;exitY=0.5;exitDx=0;exitDy=0;" edge="1" parent="1" source="BfK6dcjfq0ZnuuueL0xo-7" target="BfK6dcjfq0ZnuuueL0xo-8">
          <mxGeometry relative="1" as="geometry" />
        </mxCell>
        <mxCell id="BfK6dcjfq0ZnuuueL0xo-7" value="&lt;b&gt;&lt;font style=&quot;color: rgb(51, 51, 255);&quot;&gt;执行业务代码&lt;/font&gt;&lt;/b&gt;" style="rounded=1;whiteSpace=wrap;html=1;absoluteArcSize=1;arcSize=14;strokeWidth=2;" vertex="1" parent="1">
          <mxGeometry x="392" y="329" width="100" height="42" as="geometry" />
        </mxCell>
        <mxCell id="BfK6dcjfq0ZnuuueL0xo-13" style="edgeStyle=orthogonalEdgeStyle;rounded=0;orthogonalLoop=1;jettySize=auto;html=1;entryX=1;entryY=0.5;entryDx=0;entryDy=0;" edge="1" parent="1" source="BfK6dcjfq0ZnuuueL0xo-8" target="BfK6dcjfq0ZnuuueL0xo-6">
          <mxGeometry relative="1" as="geometry" />
        </mxCell>
        <mxCell id="BfK6dcjfq0ZnuuueL0xo-8" value="&lt;b&gt;&lt;font style=&quot;color: rgb(255, 51, 51);&quot;&gt;插入消费状态（ Redis - TTL ）&lt;/font&gt;&lt;/b&gt;" style="rounded=1;whiteSpace=wrap;html=1;absoluteArcSize=1;arcSize=14;strokeWidth=2;" vertex="1" parent="1">
          <mxGeometry x="392" y="406" width="217" height="42" as="geometry" />
        </mxCell>
      </root>
    </mxGraphModel>
  </diagram>
</mxfile>
